<?xml version="1.0" standalone="no"?>
<!DOCTYPE svg PUBLIC "-//W3C//DTD SVG 20010904//EN"
 "http://www.w3.org/TR/2001/REC-SVG-20010904/DTD/svg10.dtd">
<svg version="1.0" xmlns="http://www.w3.org/2000/svg"
 width="613.000000pt" height="520.000000pt" viewBox="0 0 613.000000 520.000000"
 preserveAspectRatio="xMidYMid meet">

<g transform="translate(0.000000,520.000000) scale(0.100000,-0.100000)"
fill="#000000" stroke="none">
<path d="M2520 4218 c-14 -6 -54 -14 -90 -18 -36 -5 -90 -14 -120 -20 -122
-25 -200 -39 -295 -55 -55 -9 -116 -21 -135 -25 -19 -5 -80 -16 -135 -26 -55
-9 -126 -22 -158 -30 -32 -8 -70 -14 -85 -14 -39 0 -172 -34 -172 -44 0 -4 65
-72 145 -149 l145 -140 0 -302 0 -303 40 -36 40 -36 0 -467 c0 -491 0 -486 48
-643 48 -157 205 -374 388 -535 43 -38 81 -73 84 -76 3 -3 49 -38 102 -78 92
-69 117 -98 103 -120 -16 -27 10 -62 81 -111 41 -27 77 -50 81 -50 3 0 21 -11
39 -25 18 -14 37 -25 43 -25 5 0 16 -6 23 -13 26 -24 367 -197 388 -197 8 0
26 7 40 14 14 8 70 37 125 65 55 28 127 66 160 85 33 19 78 44 99 56 22 12 82
49 133 82 l93 61 0 48 0 48 83 63 c45 34 93 73 107 85 14 13 52 47 85 75 111
97 263 271 310 358 11 19 24 41 30 49 17 24 75 164 75 181 0 10 7 34 15 53 13
31 15 113 15 526 l0 490 40 32 40 32 0 304 0 304 69 67 c37 37 105 102 150
146 44 43 81 82 81 86 0 4 -15 10 -32 13 -18 2 -60 10 -93 17 -129 25 -204 40
-295 55 -52 10 -111 21 -130 25 -19 5 -78 16 -130 25 -92 15 -184 32 -300 55
-30 6 -82 15 -115 20 -33 5 -76 13 -95 19 -49 15 -50 15 -50 -24 0 -23 -6 -38
-15 -41 -16 -7 -115 9 -207 32 -32 8 -72 14 -90 14 -18 0 -55 7 -82 15 -63 19
-166 19 -239 0 -32 -8 -74 -15 -93 -15 -19 0 -43 -4 -52 -9 -10 -5 -51 -14
-92 -21 -41 -6 -92 -13 -112 -17 -37 -5 -38 -5 -38 24 0 40 -17 54 -50 41z
m665 -194 c44 -8 108 -19 143 -24 35 -5 67 -12 71 -15 5 -2 41 -9 81 -15 95
-13 110 -22 110 -65 0 -41 2 -42 77 -55 32 -5 99 -16 148 -25 50 -9 115 -20
145 -25 30 -5 71 -14 90 -20 19 -5 49 -10 67 -10 65 0 63 17 63 -496 0 -348 3
-464 12 -464 6 0 20 8 30 17 13 12 22 13 29 6 7 -7 9 -134 7 -399 -4 -364 -6
-393 -25 -449 -22 -61 -39 -96 -73 -150 -11 -16 -23 -37 -27 -45 -22 -43 -79
-110 -183 -213 -129 -127 -204 -190 -213 -180 -4 3 -7 21 -7 38 0 17 -3 34 -6
38 -4 3 -27 -11 -53 -32 -107 -89 -345 -239 -551 -348 -45 -23 -47 -22 -220
76 -41 23 -88 51 -105 61 -16 11 -37 23 -45 27 -24 13 -150 98 -210 142 -30
22 -65 48 -77 57 -28 20 -46 9 -39 -22 12 -44 -20 -40 -81 12 -101 86 -228
217 -286 294 -58 79 -127 202 -127 230 0 9 -6 22 -12 28 -17 17 -25 819 -9
835 8 8 18 3 36 -13 14 -13 27 -21 31 -18 3 3 5 213 4 467 0 288 3 468 9 480
7 12 26 20 58 24 48 5 125 19 215 38 46 10 92 18 228 40 36 6 67 12 69 15 2 2
7 21 10 41 7 44 23 51 181 78 52 9 127 22 165 30 133 27 165 29 270 9z"/>
<path d="M2950 3840 c-8 -5 -33 -10 -56 -10 -55 0 -104 -18 -104 -38 0 -10 -1
-273 -3 -587 l-2 -570 -237 -3 -238 -2 0 532 c0 293 -4 539 -8 545 -6 9 -21
10 -62 2 -30 -5 -76 -12 -102 -16 -26 -3 -52 -11 -58 -18 -16 -19 -9 -1603 7
-1630 6 -11 17 -35 24 -54 31 -84 170 -264 189 -245 6 6 11 131 12 329 l3 320
225 3 c204 2 226 1 238 -15 10 -14 12 -128 12 -525 -1 -280 2 -512 5 -518 3
-5 31 -24 63 -42 31 -18 66 -38 77 -45 40 -24 68 -34 77 -25 4 4 7 595 6 1313
l-3 1304 -25 3 c-14 1 -32 -2 -40 -8z"/>
<path d="M3140 2536 l0 -1317 21 6 c17 6 169 96 283 168 11 6 74 52 140 101
196 144 380 336 446 466 12 25 28 54 34 65 7 12 12 90 14 195 l3 175 -55 55
c-31 30 -56 58 -56 62 0 4 25 32 55 62 l55 53 0 527 0 526 -22 4 c-13 3 -50 9
-83 15 -33 6 -85 16 -115 22 -30 5 -82 14 -115 20 -33 5 -73 14 -89 19 -16 6
-43 10 -60 10 -17 0 -60 6 -96 14 -103 22 -181 38 -235 46 -27 4 -67 11 -87
15 l-38 8 0 -1317z m310 1024 c19 -6 62 -15 95 -19 131 -19 276 -50 293 -64 9
-7 12 -96 12 -383 l0 -374 -41 -45 -42 -45 -196 2 -196 3 -3 455 c-1 250 0
461 3 468 5 15 29 15 75 2z m356 -1204 l44 -43 0 -92 c0 -71 -5 -101 -22 -141
-12 -27 -25 -50 -30 -50 -4 0 -8 -5 -8 -11 0 -48 -359 -379 -411 -379 -15 0
-11 734 3 748 8 8 66 12 196 12 l185 0 43 -44z"/>
</g>
</svg>
